<mxfile host="Electron" agent="Mozilla/5.0 (X11; Linux x86_64) AppleWebKit/537.36 (KHTML, like Gecko) draw.io/27.0.2 Chrome/134.0.6998.205 Electron/35.3.0 Safari/537.36" version="27.0.2">
  <diagram name="Page-1" id="bnYQTu6MR9gKF_nex_sO">
    <mxGraphModel dx="403" dy="361" grid="1" gridSize="10" guides="1" tooltips="1" connect="1" arrows="1" fold="1" page="1" pageScale="1" pageWidth="850" pageHeight="1100" math="0" shadow="0">
      <root>
        <mxCell id="0" />
        <mxCell id="1" parent="0" />
        <mxCell id="sx6R_LTffUjRbPgM1mHY-1" value="" style="group" parent="1" vertex="1" connectable="0">
          <mxGeometry x="310" y="230" width="160" height="183" as="geometry" />
        </mxCell>
        <mxCell id="sx6R_LTffUjRbPgM1mHY-2" value="" style="rounded=0;whiteSpace=wrap;html=1;" parent="sx6R_LTffUjRbPgM1mHY-1" vertex="1">
          <mxGeometry width="160" height="183" as="geometry" />
        </mxCell>
        <mxCell id="sx6R_LTffUjRbPgM1mHY-4" value="GND" style="text;html=1;align=center;verticalAlign=middle;whiteSpace=wrap;rounded=0;" parent="sx6R_LTffUjRbPgM1mHY-1" vertex="1">
          <mxGeometry x="100" y="34" width="60" height="20" as="geometry" />
        </mxCell>
        <mxCell id="sx6R_LTffUjRbPgM1mHY-5" value="5V" style="text;html=1;align=center;verticalAlign=middle;whiteSpace=wrap;rounded=0;" parent="sx6R_LTffUjRbPgM1mHY-1" vertex="1">
          <mxGeometry x="100" y="16" width="60" height="20" as="geometry" />
        </mxCell>
        <mxCell id="sx6R_LTffUjRbPgM1mHY-6" value="A2" style="text;html=1;align=center;verticalAlign=middle;whiteSpace=wrap;rounded=0;" parent="sx6R_LTffUjRbPgM1mHY-1" vertex="1">
          <mxGeometry x="100" y="72" width="60" height="20" as="geometry" />
        </mxCell>
        <mxCell id="sx6R_LTffUjRbPgM1mHY-7" value="3V3" style="text;html=1;align=center;verticalAlign=middle;whiteSpace=wrap;rounded=0;" parent="sx6R_LTffUjRbPgM1mHY-1" vertex="1">
          <mxGeometry x="100" y="54" width="60" height="20" as="geometry" />
        </mxCell>
        <mxCell id="sx6R_LTffUjRbPgM1mHY-8" value="A0" style="text;html=1;align=center;verticalAlign=middle;whiteSpace=wrap;rounded=0;" parent="sx6R_LTffUjRbPgM1mHY-1" vertex="1">
          <mxGeometry x="100" y="110" width="60" height="20" as="geometry" />
        </mxCell>
        <mxCell id="sx6R_LTffUjRbPgM1mHY-9" value="A1" style="text;html=1;align=center;verticalAlign=middle;whiteSpace=wrap;rounded=0;" parent="sx6R_LTffUjRbPgM1mHY-1" vertex="1">
          <mxGeometry x="100" y="92" width="60" height="20" as="geometry" />
        </mxCell>
        <mxCell id="sx6R_LTffUjRbPgM1mHY-10" value="D0" style="text;html=1;align=center;verticalAlign=middle;whiteSpace=wrap;rounded=0;" parent="sx6R_LTffUjRbPgM1mHY-1" vertex="1">
          <mxGeometry x="100" y="148" width="60" height="20" as="geometry" />
        </mxCell>
        <mxCell id="sx6R_LTffUjRbPgM1mHY-11" value="D1" style="text;html=1;align=center;verticalAlign=middle;whiteSpace=wrap;rounded=0;" parent="sx6R_LTffUjRbPgM1mHY-1" vertex="1">
          <mxGeometry x="100" y="130" width="60" height="20" as="geometry" />
        </mxCell>
        <mxCell id="sx6R_LTffUjRbPgM1mHY-19" value="SDA" style="text;html=1;align=center;verticalAlign=middle;whiteSpace=wrap;rounded=0;" parent="sx6R_LTffUjRbPgM1mHY-1" vertex="1">
          <mxGeometry y="33" width="60" height="20" as="geometry" />
        </mxCell>
        <mxCell id="sx6R_LTffUjRbPgM1mHY-20" value="A3" style="text;html=1;align=center;verticalAlign=middle;whiteSpace=wrap;rounded=0;" parent="sx6R_LTffUjRbPgM1mHY-1" vertex="1">
          <mxGeometry y="15" width="60" height="20" as="geometry" />
        </mxCell>
        <mxCell id="sx6R_LTffUjRbPgM1mHY-21" value="D8" style="text;html=1;align=center;verticalAlign=middle;whiteSpace=wrap;rounded=0;" parent="sx6R_LTffUjRbPgM1mHY-1" vertex="1">
          <mxGeometry y="71" width="60" height="20" as="geometry" />
        </mxCell>
        <mxCell id="sx6R_LTffUjRbPgM1mHY-22" value="SCL" style="text;html=1;align=center;verticalAlign=middle;whiteSpace=wrap;rounded=0;" parent="sx6R_LTffUjRbPgM1mHY-1" vertex="1">
          <mxGeometry y="53" width="60" height="20" as="geometry" />
        </mxCell>
        <mxCell id="sx6R_LTffUjRbPgM1mHY-23" value="D10" style="text;html=1;align=center;verticalAlign=middle;whiteSpace=wrap;rounded=0;" parent="sx6R_LTffUjRbPgM1mHY-1" vertex="1">
          <mxGeometry y="109" width="60" height="20" as="geometry" />
        </mxCell>
        <mxCell id="sx6R_LTffUjRbPgM1mHY-24" value="D9" style="text;html=1;align=center;verticalAlign=middle;whiteSpace=wrap;rounded=0;" parent="sx6R_LTffUjRbPgM1mHY-1" vertex="1">
          <mxGeometry y="91" width="60" height="20" as="geometry" />
        </mxCell>
        <mxCell id="sx6R_LTffUjRbPgM1mHY-25" value="D6" style="text;html=1;align=center;verticalAlign=middle;whiteSpace=wrap;rounded=0;" parent="sx6R_LTffUjRbPgM1mHY-1" vertex="1">
          <mxGeometry y="147" width="60" height="20" as="geometry" />
        </mxCell>
        <mxCell id="sx6R_LTffUjRbPgM1mHY-26" value="D7" style="text;html=1;align=center;verticalAlign=middle;whiteSpace=wrap;rounded=0;" parent="sx6R_LTffUjRbPgM1mHY-1" vertex="1">
          <mxGeometry y="129" width="60" height="20" as="geometry" />
        </mxCell>
        <mxCell id="sx6R_LTffUjRbPgM1mHY-3" value="Esp32-c3 Supermini&amp;nbsp;" style="text;html=1;align=center;verticalAlign=middle;whiteSpace=wrap;rounded=0;" parent="sx6R_LTffUjRbPgM1mHY-1" vertex="1">
          <mxGeometry x="40" y="52.75" width="80" height="77.5" as="geometry" />
        </mxCell>
        <mxCell id="sx6R_LTffUjRbPgM1mHY-34" value="" style="group" parent="1" vertex="1" connectable="0">
          <mxGeometry x="710" y="359.84000000000003" width="100" height="44" as="geometry" />
        </mxCell>
        <mxCell id="sx6R_LTffUjRbPgM1mHY-35" value="" style="group" parent="sx6R_LTffUjRbPgM1mHY-34" vertex="1" connectable="0">
          <mxGeometry width="100" height="20" as="geometry" />
        </mxCell>
        <mxCell id="sx6R_LTffUjRbPgM1mHY-36" value="" style="endArrow=none;html=1;rounded=0;" parent="sx6R_LTffUjRbPgM1mHY-35" edge="1">
          <mxGeometry width="50" height="50" relative="1" as="geometry">
            <mxPoint x="20" y="20" as="sourcePoint" />
            <mxPoint x="30" as="targetPoint" />
          </mxGeometry>
        </mxCell>
        <mxCell id="sx6R_LTffUjRbPgM1mHY-37" value="" style="endArrow=none;html=1;rounded=0;" parent="sx6R_LTffUjRbPgM1mHY-35" edge="1">
          <mxGeometry width="50" height="50" relative="1" as="geometry">
            <mxPoint x="30" as="sourcePoint" />
            <mxPoint x="40" y="20" as="targetPoint" />
          </mxGeometry>
        </mxCell>
        <mxCell id="sx6R_LTffUjRbPgM1mHY-38" value="" style="endArrow=none;html=1;rounded=0;" parent="sx6R_LTffUjRbPgM1mHY-35" edge="1">
          <mxGeometry width="50" height="50" relative="1" as="geometry">
            <mxPoint x="40" y="20" as="sourcePoint" />
            <mxPoint x="50" as="targetPoint" />
          </mxGeometry>
        </mxCell>
        <mxCell id="sx6R_LTffUjRbPgM1mHY-39" value="" style="endArrow=none;html=1;rounded=0;" parent="sx6R_LTffUjRbPgM1mHY-35" edge="1">
          <mxGeometry width="50" height="50" relative="1" as="geometry">
            <mxPoint x="50" as="sourcePoint" />
            <mxPoint x="60" y="20" as="targetPoint" />
          </mxGeometry>
        </mxCell>
        <mxCell id="sx6R_LTffUjRbPgM1mHY-40" value="" style="endArrow=none;html=1;rounded=0;" parent="sx6R_LTffUjRbPgM1mHY-35" edge="1">
          <mxGeometry width="50" height="50" relative="1" as="geometry">
            <mxPoint x="60" y="20" as="sourcePoint" />
            <mxPoint x="70" as="targetPoint" />
          </mxGeometry>
        </mxCell>
        <mxCell id="sx6R_LTffUjRbPgM1mHY-41" value="" style="endArrow=none;html=1;rounded=0;" parent="sx6R_LTffUjRbPgM1mHY-35" edge="1">
          <mxGeometry width="50" height="50" relative="1" as="geometry">
            <mxPoint x="70" as="sourcePoint" />
            <mxPoint x="80" y="20" as="targetPoint" />
          </mxGeometry>
        </mxCell>
        <mxCell id="sx6R_LTffUjRbPgM1mHY-42" value="" style="endArrow=none;html=1;rounded=0;" parent="sx6R_LTffUjRbPgM1mHY-35" edge="1">
          <mxGeometry width="50" height="50" relative="1" as="geometry">
            <mxPoint x="20" y="20" as="sourcePoint" />
            <mxPoint y="20" as="targetPoint" />
          </mxGeometry>
        </mxCell>
        <mxCell id="sx6R_LTffUjRbPgM1mHY-43" value="" style="endArrow=none;html=1;rounded=0;" parent="sx6R_LTffUjRbPgM1mHY-35" edge="1">
          <mxGeometry width="50" height="50" relative="1" as="geometry">
            <mxPoint x="80" y="20" as="sourcePoint" />
            <mxPoint x="100" y="20" as="targetPoint" />
          </mxGeometry>
        </mxCell>
        <mxCell id="sx6R_LTffUjRbPgM1mHY-44" value="4.7KÎ©" style="text;html=1;align=center;verticalAlign=middle;whiteSpace=wrap;rounded=0;" parent="sx6R_LTffUjRbPgM1mHY-34" vertex="1">
          <mxGeometry x="20" y="14" width="60" height="30" as="geometry" />
        </mxCell>
        <mxCell id="sx6R_LTffUjRbPgM1mHY-97" value="" style="group" parent="1" vertex="1" connectable="0">
          <mxGeometry x="381" y="740" width="87.5" height="77.25" as="geometry" />
        </mxCell>
        <mxCell id="sx6R_LTffUjRbPgM1mHY-93" value="" style="group" parent="sx6R_LTffUjRbPgM1mHY-97" vertex="1" connectable="0">
          <mxGeometry x="7.5" width="80" height="40" as="geometry" />
        </mxCell>
        <mxCell id="sx6R_LTffUjRbPgM1mHY-87" value="" style="endArrow=none;html=1;rounded=0;" parent="sx6R_LTffUjRbPgM1mHY-93" edge="1">
          <mxGeometry width="50" height="50" relative="1" as="geometry">
            <mxPoint x="20" y="40" as="sourcePoint" />
            <mxPoint x="20" as="targetPoint" />
          </mxGeometry>
        </mxCell>
        <mxCell id="sx6R_LTffUjRbPgM1mHY-88" value="" style="endArrow=none;html=1;rounded=0;" parent="sx6R_LTffUjRbPgM1mHY-93" edge="1">
          <mxGeometry width="50" height="50" relative="1" as="geometry">
            <mxPoint x="40" y="40" as="sourcePoint" />
            <mxPoint x="40" as="targetPoint" />
          </mxGeometry>
        </mxCell>
        <mxCell id="sx6R_LTffUjRbPgM1mHY-89" value="" style="endArrow=none;html=1;rounded=0;" parent="sx6R_LTffUjRbPgM1mHY-93" edge="1">
          <mxGeometry width="50" height="50" relative="1" as="geometry">
            <mxPoint x="30" y="30" as="sourcePoint" />
            <mxPoint x="30" y="10" as="targetPoint" />
          </mxGeometry>
        </mxCell>
        <mxCell id="sx6R_LTffUjRbPgM1mHY-90" value="" style="endArrow=none;html=1;rounded=0;" parent="sx6R_LTffUjRbPgM1mHY-93" edge="1">
          <mxGeometry width="50" height="50" relative="1" as="geometry">
            <mxPoint x="50" y="30" as="sourcePoint" />
            <mxPoint x="50" y="10" as="targetPoint" />
          </mxGeometry>
        </mxCell>
        <mxCell id="sx6R_LTffUjRbPgM1mHY-91" value="" style="endArrow=none;html=1;rounded=0;" parent="sx6R_LTffUjRbPgM1mHY-93" edge="1">
          <mxGeometry width="50" height="50" relative="1" as="geometry">
            <mxPoint x="65" y="20" as="sourcePoint" />
            <mxPoint x="50" y="20" as="targetPoint" />
          </mxGeometry>
        </mxCell>
        <mxCell id="sx6R_LTffUjRbPgM1mHY-92" value="" style="endArrow=none;html=1;rounded=0;" parent="sx6R_LTffUjRbPgM1mHY-93" edge="1">
          <mxGeometry width="50" height="50" relative="1" as="geometry">
            <mxPoint x="20" y="20" as="sourcePoint" />
            <mxPoint y="20" as="targetPoint" />
          </mxGeometry>
        </mxCell>
        <mxCell id="sx6R_LTffUjRbPgM1mHY-95" value="-" style="text;html=1;align=center;verticalAlign=middle;whiteSpace=wrap;rounded=0;" parent="sx6R_LTffUjRbPgM1mHY-93" vertex="1">
          <mxGeometry x="50" width="30" height="17.25" as="geometry" />
        </mxCell>
        <mxCell id="sx6R_LTffUjRbPgM1mHY-96" value="+" style="text;html=1;align=center;verticalAlign=middle;whiteSpace=wrap;rounded=0;" parent="sx6R_LTffUjRbPgM1mHY-93" vertex="1">
          <mxGeometry x="-10" width="30" height="17.25" as="geometry" />
        </mxCell>
        <mxCell id="sx6R_LTffUjRbPgM1mHY-94" value="4.2V" style="text;html=1;align=center;verticalAlign=middle;whiteSpace=wrap;rounded=0;" parent="sx6R_LTffUjRbPgM1mHY-97" vertex="1">
          <mxGeometry x="3.75" y="31" width="80" height="37.25" as="geometry" />
        </mxCell>
        <mxCell id="sx6R_LTffUjRbPgM1mHY-130" value="" style="group" parent="1" vertex="1" connectable="0">
          <mxGeometry x="610" y="303" width="130" height="110" as="geometry" />
        </mxCell>
        <mxCell id="sx6R_LTffUjRbPgM1mHY-128" value="" style="ellipse;whiteSpace=wrap;html=1;aspect=fixed;" parent="sx6R_LTffUjRbPgM1mHY-130" vertex="1">
          <mxGeometry x="10" y="30" width="80" height="80" as="geometry" />
        </mxCell>
        <mxCell id="sx6R_LTffUjRbPgM1mHY-116" value="" style="group" parent="sx6R_LTffUjRbPgM1mHY-130" vertex="1" connectable="0">
          <mxGeometry y="57" width="100" height="44" as="geometry" />
        </mxCell>
        <mxCell id="sx6R_LTffUjRbPgM1mHY-117" value="" style="group" parent="sx6R_LTffUjRbPgM1mHY-116" vertex="1" connectable="0">
          <mxGeometry width="100" height="20" as="geometry" />
        </mxCell>
        <mxCell id="sx6R_LTffUjRbPgM1mHY-118" value="" style="endArrow=none;html=1;rounded=0;" parent="sx6R_LTffUjRbPgM1mHY-117" edge="1">
          <mxGeometry width="50" height="50" relative="1" as="geometry">
            <mxPoint x="20" y="20" as="sourcePoint" />
            <mxPoint x="30" as="targetPoint" />
          </mxGeometry>
        </mxCell>
        <mxCell id="sx6R_LTffUjRbPgM1mHY-119" value="" style="endArrow=none;html=1;rounded=0;" parent="sx6R_LTffUjRbPgM1mHY-117" edge="1">
          <mxGeometry width="50" height="50" relative="1" as="geometry">
            <mxPoint x="30" as="sourcePoint" />
            <mxPoint x="40" y="20" as="targetPoint" />
          </mxGeometry>
        </mxCell>
        <mxCell id="sx6R_LTffUjRbPgM1mHY-120" value="" style="endArrow=none;html=1;rounded=0;" parent="sx6R_LTffUjRbPgM1mHY-117" edge="1">
          <mxGeometry width="50" height="50" relative="1" as="geometry">
            <mxPoint x="40" y="20" as="sourcePoint" />
            <mxPoint x="50" as="targetPoint" />
          </mxGeometry>
        </mxCell>
        <mxCell id="sx6R_LTffUjRbPgM1mHY-121" value="" style="endArrow=none;html=1;rounded=0;" parent="sx6R_LTffUjRbPgM1mHY-117" edge="1">
          <mxGeometry width="50" height="50" relative="1" as="geometry">
            <mxPoint x="50" as="sourcePoint" />
            <mxPoint x="60" y="20" as="targetPoint" />
          </mxGeometry>
        </mxCell>
        <mxCell id="sx6R_LTffUjRbPgM1mHY-122" value="" style="endArrow=none;html=1;rounded=0;" parent="sx6R_LTffUjRbPgM1mHY-117" edge="1">
          <mxGeometry width="50" height="50" relative="1" as="geometry">
            <mxPoint x="60" y="20" as="sourcePoint" />
            <mxPoint x="70" as="targetPoint" />
          </mxGeometry>
        </mxCell>
        <mxCell id="sx6R_LTffUjRbPgM1mHY-123" value="" style="endArrow=none;html=1;rounded=0;" parent="sx6R_LTffUjRbPgM1mHY-117" edge="1">
          <mxGeometry width="50" height="50" relative="1" as="geometry">
            <mxPoint x="70" as="sourcePoint" />
            <mxPoint x="80" y="20" as="targetPoint" />
          </mxGeometry>
        </mxCell>
        <mxCell id="sx6R_LTffUjRbPgM1mHY-124" value="" style="endArrow=none;html=1;rounded=0;" parent="sx6R_LTffUjRbPgM1mHY-117" edge="1">
          <mxGeometry width="50" height="50" relative="1" as="geometry">
            <mxPoint x="20" y="20" as="sourcePoint" />
            <mxPoint y="20" as="targetPoint" />
          </mxGeometry>
        </mxCell>
        <mxCell id="sx6R_LTffUjRbPgM1mHY-125" value="" style="endArrow=none;html=1;rounded=0;" parent="sx6R_LTffUjRbPgM1mHY-117" edge="1">
          <mxGeometry width="50" height="50" relative="1" as="geometry">
            <mxPoint x="80" y="20" as="sourcePoint" />
            <mxPoint x="100" y="20" as="targetPoint" />
          </mxGeometry>
        </mxCell>
        <mxCell id="sx6R_LTffUjRbPgM1mHY-127" value="" style="endArrow=none;html=1;rounded=0;startArrow=classic;startFill=1;" parent="sx6R_LTffUjRbPgM1mHY-130" edge="1">
          <mxGeometry width="50" height="50" relative="1" as="geometry">
            <mxPoint x="90" y="47" as="sourcePoint" />
            <mxPoint x="130" y="17" as="targetPoint" />
          </mxGeometry>
        </mxCell>
        <mxCell id="sx6R_LTffUjRbPgM1mHY-129" value="" style="endArrow=none;html=1;rounded=0;startArrow=classic;startFill=1;" parent="sx6R_LTffUjRbPgM1mHY-130" edge="1">
          <mxGeometry width="50" height="50" relative="1" as="geometry">
            <mxPoint x="80" y="30" as="sourcePoint" />
            <mxPoint x="120" as="targetPoint" />
          </mxGeometry>
        </mxCell>
        <mxCell id="sx6R_LTffUjRbPgM1mHY-67" value="" style="rounded=0;whiteSpace=wrap;html=1;" parent="1" vertex="1">
          <mxGeometry x="345" y="880" width="160" height="90" as="geometry" />
        </mxCell>
        <mxCell id="sx6R_LTffUjRbPgM1mHY-69" value="OUT-" style="text;html=1;align=center;verticalAlign=middle;whiteSpace=wrap;rounded=0;" parent="1" vertex="1">
          <mxGeometry x="465" y="880" width="30" height="20" as="geometry" />
        </mxCell>
        <mxCell id="sx6R_LTffUjRbPgM1mHY-77" value="OUT+" style="text;html=1;align=center;verticalAlign=middle;whiteSpace=wrap;rounded=0;" parent="1" vertex="1">
          <mxGeometry x="355" y="880" width="30" height="20" as="geometry" />
        </mxCell>
        <mxCell id="sx6R_LTffUjRbPgM1mHY-84" value="TP4056" style="text;html=1;align=center;verticalAlign=middle;whiteSpace=wrap;rounded=0;" parent="1" vertex="1">
          <mxGeometry x="385" y="916.38" width="80" height="37.25" as="geometry" />
        </mxCell>
        <mxCell id="sx6R_LTffUjRbPgM1mHY-85" value="B-" style="text;html=1;align=center;verticalAlign=middle;whiteSpace=wrap;rounded=0;" parent="1" vertex="1">
          <mxGeometry x="435" y="880" width="30" height="20" as="geometry" />
        </mxCell>
        <mxCell id="sx6R_LTffUjRbPgM1mHY-86" value="B+" style="text;html=1;align=center;verticalAlign=middle;whiteSpace=wrap;rounded=0;" parent="1" vertex="1">
          <mxGeometry x="385" y="880" width="30" height="20" as="geometry" />
        </mxCell>
        <mxCell id="sx6R_LTffUjRbPgM1mHY-131" value="" style="endArrow=none;html=1;rounded=0;edgeStyle=orthogonalEdgeStyle;exitX=0.5;exitY=0;exitDx=0;exitDy=0;strokeColor=#FF0000;" parent="1" source="sx6R_LTffUjRbPgM1mHY-86" edge="1">
          <mxGeometry width="50" height="50" relative="1" as="geometry">
            <mxPoint x="200" y="850" as="sourcePoint" />
            <mxPoint x="390" y="760" as="targetPoint" />
            <Array as="points">
              <mxPoint x="400" y="821" />
              <mxPoint x="380" y="821" />
              <mxPoint x="380" y="760" />
            </Array>
          </mxGeometry>
        </mxCell>
        <mxCell id="sx6R_LTffUjRbPgM1mHY-132" value="" style="endArrow=none;html=1;rounded=0;edgeStyle=orthogonalEdgeStyle;exitX=0.5;exitY=0;exitDx=0;exitDy=0;strokeColor=#000000;" parent="1" source="sx6R_LTffUjRbPgM1mHY-85" edge="1">
          <mxGeometry width="50" height="50" relative="1" as="geometry">
            <mxPoint x="410" y="890" as="sourcePoint" />
            <mxPoint x="450" y="760" as="targetPoint" />
            <Array as="points">
              <mxPoint x="450" y="820" />
              <mxPoint x="470" y="820" />
              <mxPoint x="470" y="760" />
            </Array>
          </mxGeometry>
        </mxCell>
        <mxCell id="sx6R_LTffUjRbPgM1mHY-134" value="" style="group;rotation=-90;" parent="1" vertex="1" connectable="0">
          <mxGeometry x="345" y="560" width="160" height="105" as="geometry" />
        </mxCell>
        <mxCell id="sx6R_LTffUjRbPgM1mHY-98" value="" style="rounded=0;whiteSpace=wrap;html=1;rotation=-90;" parent="sx6R_LTffUjRbPgM1mHY-134" vertex="1">
          <mxGeometry x="15" y="15" width="130" height="90" as="geometry" />
        </mxCell>
        <mxCell id="sx6R_LTffUjRbPgM1mHY-99" value="OUT-" style="text;html=1;align=center;verticalAlign=middle;whiteSpace=wrap;rounded=0;rotation=-90;" parent="sx6R_LTffUjRbPgM1mHY-134" vertex="1">
          <mxGeometry x="30" y="6" width="30" height="20" as="geometry" />
        </mxCell>
        <mxCell id="sx6R_LTffUjRbPgM1mHY-100" value="IN+" style="text;html=1;align=center;verticalAlign=middle;whiteSpace=wrap;rounded=0;rotation=-90;" parent="sx6R_LTffUjRbPgM1mHY-134" vertex="1">
          <mxGeometry x="30" y="100" width="30" height="20" as="geometry" />
        </mxCell>
        <mxCell id="sx6R_LTffUjRbPgM1mHY-101" value="LM2596" style="text;html=1;align=center;verticalAlign=middle;whiteSpace=wrap;rounded=0;rotation=-90;" parent="sx6R_LTffUjRbPgM1mHY-134" vertex="1">
          <mxGeometry x="40" y="41.38" width="80" height="37.25" as="geometry" />
        </mxCell>
        <mxCell id="sx6R_LTffUjRbPgM1mHY-102" value="OUT+" style="text;html=1;align=center;verticalAlign=middle;whiteSpace=wrap;rounded=0;rotation=-90;" parent="sx6R_LTffUjRbPgM1mHY-134" vertex="1">
          <mxGeometry x="100" y="6" width="30" height="20" as="geometry" />
        </mxCell>
        <mxCell id="sx6R_LTffUjRbPgM1mHY-103" value="IN-" style="text;html=1;align=center;verticalAlign=middle;whiteSpace=wrap;rounded=0;rotation=-90;" parent="sx6R_LTffUjRbPgM1mHY-134" vertex="1">
          <mxGeometry x="100" y="100" width="30" height="20" as="geometry" />
        </mxCell>
        <mxCell id="sx6R_LTffUjRbPgM1mHY-135" value="" style="endArrow=none;html=1;rounded=0;edgeStyle=orthogonalEdgeStyle;exitX=0.5;exitY=0;exitDx=0;exitDy=0;entryX=0;entryY=0.5;entryDx=0;entryDy=0;strokeColor=#000000;" parent="1" source="sx6R_LTffUjRbPgM1mHY-69" target="sx6R_LTffUjRbPgM1mHY-103" edge="1">
          <mxGeometry width="50" height="50" relative="1" as="geometry">
            <mxPoint x="460" y="890" as="sourcePoint" />
            <mxPoint x="460" y="770" as="targetPoint" />
            <Array as="points">
              <mxPoint x="480" y="840" />
              <mxPoint x="500" y="840" />
              <mxPoint x="500" y="720" />
              <mxPoint x="460" y="720" />
            </Array>
          </mxGeometry>
        </mxCell>
        <mxCell id="sx6R_LTffUjRbPgM1mHY-136" value="" style="endArrow=none;html=1;rounded=0;edgeStyle=orthogonalEdgeStyle;exitX=0.5;exitY=0;exitDx=0;exitDy=0;strokeColor=#FF0000;" parent="1" source="sx6R_LTffUjRbPgM1mHY-77" edge="1">
          <mxGeometry width="50" height="50" relative="1" as="geometry">
            <mxPoint x="490" y="890" as="sourcePoint" />
            <mxPoint x="350" y="800" as="targetPoint" />
            <Array as="points">
              <mxPoint x="370" y="850" />
              <mxPoint x="350" y="850" />
            </Array>
          </mxGeometry>
        </mxCell>
        <mxCell id="sx6R_LTffUjRbPgM1mHY-137" value="IN4007" style="text;html=1;align=center;verticalAlign=middle;whiteSpace=wrap;rounded=0;" parent="1" vertex="1">
          <mxGeometry x="537.17" y="332.84000000000003" width="60" height="30" as="geometry" />
        </mxCell>
        <mxCell id="sx6R_LTffUjRbPgM1mHY-138" value="" style="endArrow=none;html=1;rounded=0;exitX=1;exitY=0.5;exitDx=0;exitDy=0;edgeStyle=orthogonalEdgeStyle;entryX=0.5;entryY=1;entryDx=0;entryDy=0;strokeColor=#FF0000;" parent="1" source="sx6R_LTffUjRbPgM1mHY-5" target="sx6R_LTffUjRbPgM1mHY-102" edge="1">
          <mxGeometry width="50" height="50" relative="1" as="geometry">
            <mxPoint x="510" y="300" as="sourcePoint" />
            <mxPoint x="530" y="570" as="targetPoint" />
            <Array as="points">
              <mxPoint x="530" y="256" />
              <mxPoint x="530" y="576" />
            </Array>
          </mxGeometry>
        </mxCell>
        <mxCell id="sx6R_LTffUjRbPgM1mHY-139" value="" style="endArrow=none;html=1;rounded=0;exitX=1;exitY=0.5;exitDx=0;exitDy=0;edgeStyle=orthogonalEdgeStyle;entryX=0.5;entryY=0;entryDx=0;entryDy=0;strokeColor=#000000;" parent="1" source="sx6R_LTffUjRbPgM1mHY-4" target="sx6R_LTffUjRbPgM1mHY-99" edge="1">
          <mxGeometry width="50" height="50" relative="1" as="geometry">
            <mxPoint x="480" y="266" as="sourcePoint" />
            <mxPoint x="480" y="586" as="targetPoint" />
            <Array as="points">
              <mxPoint x="490" y="274" />
              <mxPoint x="490" y="530" />
              <mxPoint x="360" y="530" />
              <mxPoint x="360" y="576" />
            </Array>
          </mxGeometry>
        </mxCell>
        <mxCell id="sx6R_LTffUjRbPgM1mHY-140" value="" style="triangle;whiteSpace=wrap;html=1;rotation=-90;" parent="1" vertex="1">
          <mxGeometry x="522.17" y="337.84" width="15" height="20" as="geometry" />
        </mxCell>
        <mxCell id="sx6R_LTffUjRbPgM1mHY-142" value="" style="endArrow=none;html=1;rounded=0;" parent="1" edge="1">
          <mxGeometry width="50" height="50" relative="1" as="geometry">
            <mxPoint x="540" y="340" as="sourcePoint" />
            <mxPoint x="520" y="340" as="targetPoint" />
          </mxGeometry>
        </mxCell>
        <mxCell id="sx6R_LTffUjRbPgM1mHY-143" value="" style="endArrow=none;html=1;rounded=0;edgeStyle=orthogonalEdgeStyle;strokeColor=#000000;jumpStyle=arc;" parent="1" edge="1">
          <mxGeometry width="50" height="50" relative="1" as="geometry">
            <mxPoint x="810" y="380" as="sourcePoint" />
            <mxPoint x="490" y="290" as="targetPoint" />
            <Array as="points">
              <mxPoint x="810" y="284" />
              <mxPoint x="490" y="284" />
            </Array>
          </mxGeometry>
        </mxCell>
        <mxCell id="sx6R_LTffUjRbPgM1mHY-144" value="" style="endArrow=none;html=1;rounded=0;exitX=1;exitY=0.5;exitDx=0;exitDy=0;edgeStyle=orthogonalEdgeStyle;strokeColor=#FF0000;jumpStyle=arc;" parent="1" source="sx6R_LTffUjRbPgM1mHY-7" edge="1">
          <mxGeometry width="50" height="50" relative="1" as="geometry">
            <mxPoint x="480" y="266" as="sourcePoint" />
            <mxPoint x="610" y="380" as="targetPoint" />
            <Array as="points">
              <mxPoint x="600" y="294" />
              <mxPoint x="600" y="380" />
            </Array>
          </mxGeometry>
        </mxCell>
        <mxCell id="sx6R_LTffUjRbPgM1mHY-146" value="" style="endArrow=none;html=1;rounded=0;edgeStyle=orthogonalEdgeStyle;exitX=1;exitY=0.5;exitDx=0;exitDy=0;jumpStyle=arc;" parent="1" source="sx6R_LTffUjRbPgM1mHY-9" edge="1">
          <mxGeometry width="50" height="50" relative="1" as="geometry">
            <mxPoint x="580" y="490" as="sourcePoint" />
            <mxPoint x="720" y="380" as="targetPoint" />
            <Array as="points">
              <mxPoint x="510" y="332" />
              <mxPoint x="510" y="440" />
              <mxPoint x="721" y="440" />
              <mxPoint x="721" y="380" />
            </Array>
          </mxGeometry>
        </mxCell>
        <mxCell id="sx6R_LTffUjRbPgM1mHY-148" value="18650" style="text;html=1;align=center;verticalAlign=middle;whiteSpace=wrap;rounded=0;" parent="1" vertex="1">
          <mxGeometry x="385" y="702.75" width="80" height="37.25" as="geometry" />
        </mxCell>
        <mxCell id="3R5d0ANsI50cuZkhx2DE-1" value="" style="endArrow=none;html=1;rounded=0;edgeStyle=orthogonalEdgeStyle;entryX=0;entryY=0.5;entryDx=0;entryDy=0;strokeColor=#FF0000;" edge="1" parent="1" target="sx6R_LTffUjRbPgM1mHY-100">
          <mxGeometry width="50" height="50" relative="1" as="geometry">
            <mxPoint x="350" y="770" as="sourcePoint" />
            <mxPoint x="344.97" y="700" as="targetPoint" />
            <Array as="points">
              <mxPoint x="350" y="735" />
              <mxPoint x="390" y="735" />
            </Array>
          </mxGeometry>
        </mxCell>
        <mxCell id="3R5d0ANsI50cuZkhx2DE-2" value="" style="endArrow=none;html=1;rounded=0;strokeColor=#FF0000;" edge="1" parent="1">
          <mxGeometry width="50" height="50" relative="1" as="geometry">
            <mxPoint x="330" y="770" as="sourcePoint" />
            <mxPoint x="350" y="800" as="targetPoint" />
          </mxGeometry>
        </mxCell>
      </root>
    </mxGraphModel>
  </diagram>
</mxfile>
